<?xml version="1.0" encoding="UTF-8"?>
<svg version="1.1" xmlns="http://www.w3.org/2000/svg" width="1200" height="1200">
<path d="M0 0 C3.26626681 7.7504918 5.89958236 15.63679813 8.421875 23.65625 C8.84267925 24.98448893 9.26383608 26.31261621 9.68531799 27.64064026 C10.57940562 30.46004959 11.47123859 33.28015766 12.36123657 36.1008606 C13.76829936 40.55997205 15.1808793 45.01732349 16.59448242 49.47436523 C18.26827051 54.75260656 19.94121824 60.03111195 21.61272335 65.31007671 C25.49391796 77.56686943 29.39532087 89.81715883 33.3125 102.0625 C33.79257507 103.5638147 33.79257507 103.5638147 34.28234863 105.09545898 C39.4573118 121.27056126 44.71465734 137.41803587 50.00137329 153.55691528 C55.4066763 170.06022285 60.72299987 186.59051865 66 203.13525391 C70.93755165 218.61091017 75.94246446 234.06315689 81 249.5 C86.74064721 267.02186802 92.39714071 284.56886744 98 302.13525391 C102.93755165 317.61091017 107.94246446 333.06315689 113 348.5 C118.74064721 366.02186802 124.39714071 383.56886744 130 401.13525391 C134.93755165 416.61091017 139.94246446 432.06315689 145 447.5 C150.74064721 465.02186802 156.39714071 482.56886744 162 500.13525391 C166.93755224 515.61091202 171.94265784 531.06309239 177 546.5 C182.58283965 563.54286841 188.10269533 580.60480224 193.5625 597.6875 C193.88839111 598.70714844 194.21428223 599.72679687 194.55004883 600.77734375 C199.04539087 614.84773003 203.52381014 628.92351114 208 643 C210.61427754 636.62800557 213.01950239 630.23066023 215.1796875 623.69140625 C215.61285027 622.39177444 215.61285027 622.39177444 216.05476379 621.06588745 C216.99799829 618.23246285 217.93662936 615.39753876 218.875 612.5625 C219.54651352 610.54105802 220.21814658 608.51965575 220.88989258 606.49829102 C225.49126584 592.63465567 230.02204607 578.74864264 234.52508545 564.85281372 C240.13301209 547.55564262 245.88404775 530.30689612 251.64797592 513.06126022 C258.34824458 493.01299264 264.97207427 472.94164323 271.48461914 452.83154297 C272.44000361 449.8821934 273.39679002 446.93330241 274.35498047 443.98486328 C274.97824023 442.06695949 275.60046696 440.14872008 276.22265625 438.23046875 C276.76212891 436.58498047 276.76212891 436.58498047 277.3125 434.90625 C277.61800781 433.97103516 277.92351563 433.03582031 278.23828125 432.07226562 C279 430 279 430 280 429 C281.77991924 428.90629376 283.56356739 428.88255729 285.34594727 428.88647461 C287.05760826 428.88658791 287.05760826 428.88658791 288.80384827 428.88670349 C290.0454924 428.89186478 291.28713654 428.89702606 292.56640625 428.90234375 C294.46204567 428.90446617 294.46204567 428.90446617 296.39598083 428.90663147 C299.76124889 428.91129418 303.1264499 428.9202852 306.49169922 428.93133545 C309.9234967 428.94155154 313.35530109 428.94612951 316.78710938 428.95117188 C323.52475824 428.9622262 330.26237525 428.9789829 337 429 C347.34783649 459.03031741 357.38143352 489.15913028 367.31164551 519.32983398 C370.29381073 528.38917533 373.27955661 537.44733754 376.26555252 546.50541687 C377.00061944 548.73544105 377.73554199 550.96551283 378.47031784 553.19563293 C382.35838988 564.99555376 386.25706755 576.79174938 390.19189453 588.57617188 C390.52931325 589.58684345 390.86673197 590.59751503 391.2143755 591.63881302 C392.78860418 596.35222127 394.3650744 601.06486326 395.94517517 605.77630615 C400.086852 618.14562742 404.07694246 630.55966975 408 643 C410.14279435 637.72981416 412.26505773 632.48209627 414.00439453 627.06201172 C414.34712402 626.00000549 414.68985352 624.93799927 415.04296875 623.84381104 C415.58244141 622.15381989 415.58244141 622.15381989 416.1328125 620.4296875 C416.52194824 619.22052673 416.91108398 618.01136597 417.31201172 616.76556396 C418.36715478 613.48672501 419.41797691 610.20651629 420.46799469 606.92603302 C421.58136031 603.45033867 422.6988473 599.9759698 423.81591797 596.50146484 C425.65540876 590.77833804 427.49264196 585.05449146 429.328125 579.33007812 C431.77707792 571.69266621 434.23124606 564.05694245 436.6875 556.421875 C439.63848305 547.24796198 442.58788106 538.07354243 445.53515625 528.8984375 C449.8240883 515.54672901 454.11527384 502.19574553 458.40692139 488.84490967 C459.86403986 484.31193439 461.32113517 479.77895168 462.7779541 475.24588013 C463.46399228 473.11185946 464.15042692 470.9779662 464.83728027 468.84420776 C466.51786731 463.62162715 468.19343108 458.39753468 469.85662556 453.16939163 C470.6889258 450.55409189 471.52349375 447.93951835 472.3582592 445.32500458 C472.954852 443.45322364 473.54820131 441.58040991 474.14149475 439.70758057 C474.68041603 438.02073151 474.68041603 438.02073151 475.23022461 436.29980469 C475.70739174 434.79870148 475.70739174 434.79870148 476.19419861 433.26727295 C477 431 477 431 478 430 C480.30053835 429.90556665 482.60402173 429.88257872 484.90649414 429.88647461 C485.62840439 429.88632858 486.35031464 429.88618256 487.09410095 429.8860321 C489.49114947 429.88673131 491.88812123 429.89452405 494.28515625 429.90234375 C495.94282489 429.9042079 497.60049407 429.90563182 499.25816345 429.90663147 C503.62954214 429.91045688 508.00088781 429.92028735 512.37225342 429.93133545 C516.82954461 429.94154908 521.28684111 429.94612899 525.74414062 429.95117188 C534.49610893 429.9619096 543.24805036 429.97898629 552 430 C550.75470607 436.16505026 549.10944207 442.05247187 547.05078125 447.9921875 C546.76195572 448.83773697 546.47313019 449.68328644 546.17555237 450.55445862 C545.22602936 453.32965433 544.26940921 456.10234329 543.3125 458.875 C542.63333089 460.8541467 541.95446279 462.83339671 541.27587891 464.81274414 C536.25302656 479.44402224 531.16041455 494.0509558 526.05004883 508.65185547 C520.47753576 524.58205197 514.98579158 540.53979709 509.5 556.5 C503.25003783 574.68244413 496.97524973 592.85555734 490.62402344 611.00292969 C485.09043196 626.81931907 479.6325019 642.66147128 474.18495178 658.50764465 C467.73622547 677.26539472 461.27847115 696.01981455 454.75 714.75 C454.46552002 715.56750732 454.18104004 716.38501465 453.88793945 717.22729492 C449.02734259 731.18955568 444.00814524 745.08848544 439 759 C419.86 759 400.72 759 381 759 C378.45959819 752.64899547 376.02620034 746.37892377 373.85546875 739.91015625 C373.56965439 739.06661087 373.28384003 738.22306549 372.98936462 737.35395813 C372.37489964 735.54019336 371.76155155 733.72604989 371.14923096 731.91156006 C369.47194389 726.94271555 367.78524839 721.97707125 366.09765625 717.01171875 C365.57857697 715.4842099 365.57857697 715.4842099 365.04901123 713.92584229 C362.08440439 705.21701629 359.04843766 696.53433339 355.99688721 687.85568237 C347.51088323 663.71141197 339.34840792 639.45837764 331.18212891 615.20458984 C326.17788294 600.34324134 321.1648175 585.48486486 316.09902 570.6443634 C315.56461405 569.0776369 315.03119738 567.51057259 314.49880409 565.94316101 C313.76531966 563.7846889 313.02809631 561.62753152 312.28979492 559.47070312 C311.8706633 558.24194458 311.45153168 557.01318604 311.0196991 555.74719238 C310.26332326 553.12437179 310.26332326 553.12437179 309 552 C308.79527573 552.60608597 308.59055145 553.21217194 308.37962341 553.83662415 C305.73545228 561.66300082 303.0877761 569.48818863 300.4375 577.3125 C300.22099037 577.95171638 300.00448074 578.59093277 299.78141022 579.24951935 C294.22452779 595.65255419 288.62175729 612.03732336 282.875 628.375 C278.1332219 641.85765427 273.50323766 655.37617151 268.93359375 668.91796875 C268.52847187 670.11837925 268.52847187 670.11837925 268.11516571 671.34304047 C265.38918113 679.42225206 262.66762727 687.50294081 259.95361328 695.58618164 C252.8302332 716.79647359 245.49052154 737.91577619 238 759 C218.86 759 199.72 759 180 759 C176.67588348 751.02212035 173.57898791 743.18811552 170.84765625 735.01953125 C170.47128525 733.90563522 170.09491425 732.7917392 169.70713806 731.64408875 C168.48845091 728.03483072 167.27551831 724.42366671 166.0625 720.8125 C165.20686435 718.27587669 164.35085308 715.7393844 163.49414062 713.203125 C162.20305182 709.380276 160.91215697 705.5573634 159.62319946 701.73379517 C156.37885453 692.11160691 153.10810826 682.49873777 149.81878662 672.8918457 C141.06895015 647.33175688 132.39352259 621.74639313 123.73021817 596.15687251 C123.24913535 594.73588033 122.7680256 593.31489727 122.28688693 591.893924 C99.54384504 524.72507701 77.09980645 457.4569015 54.68306535 390.17865736 C51.00133579 379.12895853 47.31799729 368.07979707 43.63354492 357.03100586 C39.26906876 343.94298408 34.90560728 330.85462468 30.5436663 317.76575774 C30.07541168 316.36067553 29.60715586 314.95559372 29.13889885 313.55051231 C28.90894587 312.8604991 28.67899289 312.17048588 28.44207164 311.45956317 C26.86388673 306.72416461 25.28502523 301.988992 23.70587349 297.25391579 C14.07366392 268.37055742 4.5002998 239.47028214 -4.88853669 210.506805 C-7.95553702 201.04715838 -11.06142283 191.60039319 -14.17578125 182.15625 C-14.76202969 180.37668527 -15.34822472 178.59710295 -15.93437195 176.81750488 C-17.13066675 173.18596235 -18.32744538 169.55457983 -19.5246582 165.92333984 C-21.02890056 161.36078364 -22.53202442 156.79785984 -24.03483772 152.23483276 C-30.65207902 132.1438703 -37.28798153 112.05953211 -44 92 C-88.05559672 108.52526602 -130.00985738 130.09077974 -168 158 C-169.59134766 159.16595703 -169.59134766 159.16595703 -171.21484375 160.35546875 C-174.16372649 162.5448495 -177.08744638 164.76254159 -180 167 C-180.54188965 167.41572266 -181.0837793 167.83144531 -181.64208984 168.25976562 C-197.37945106 180.36887799 -212.56545798 193.29258636 -226.4609375 207.49609375 C-228.07403784 209.07234662 -229.76145508 210.50147722 -231.5 211.9375 C-234.75111514 214.66727819 -237.43886744 217.69987533 -240.18359375 220.9296875 C-242.04274652 223.04872183 -243.98961399 225.02447617 -246 227 C-249.87997055 230.83545846 -253.46457821 234.84728234 -257 239 C-257.8353125 239.969375 -258.670625 240.93875 -259.53125 241.9375 C-315.72408467 307.41733017 -355.80402421 388.25387707 -382 529 C-382.17789063 530.61116699 -382.17789063 530.61116699 -382.359375 532.25488281 C-391.17588793 617.14005936 -376.84141909 706.14122234 -273.02539062 903.28271484 C-270.37489818 906.54250688 -267.69196664 909.77443641 -265 913 C-264.52320801 913.57588867 -264.04641602 914.15177734 -263.55517578 914.74511719 C-254.9627921 925.12093927 -246.00441519 935.16834197 -236.37109375 944.59375 C-235 946 -235 946 -233.0625 948.5 C-230.7065887 951.35565006 -228.0836872 953.58287653 -225.2734375 955.98046875 C-222.74407573 958.22734166 -220.37566293 960.59144327 -218 963 C-213.82202267 967.21601658 -209.52774034 971.16640801 -205 975 C-204.03320312 975.83273437 -203.06640625 976.66546875 -202.0703125 977.5234375 C-139.77287342 1031.00412452 -64.64922384 1068.66887834 15 1088 C16.02963867 1088.25169952 16.02963867 1088.25169952 17.08007812 1088.50848389 C57.02331037 1098.26288567 96.97658728 1103.58456227 138 1106 C143.81962552 1123.26298031 149.61673557 1140.53398733 155.09112549 1157.91015625 C155.52892614 1159.29878935 155.9686521 1160.68681698 156.41033936 1162.07421875 C157.02433011 1164.0059223 157.62956355 1165.94040279 158.234375 1167.875 C158.57694336 1168.96554687 158.91951172 1170.05609375 159.27246094 1171.1796875 C160 1174 160 1174 160 1178 C97.24135324 1178.67256658 97.24135324 1178.67256658 68 1175 C67.22279602 1174.90289734 66.44559204 1174.80579468 65.64483643 1174.70574951 C-9.67976667 1165.17799679 -84.07476552 1142.9689366 -150.36181641 1105.49121094 C-152.98893795 1104.00625273 -155.62467783 1102.53756775 -158.26171875 1101.0703125 C-188.98953561 1083.86296388 -218.10589792 1063.75654792 -245 1041 C-245.52577637 1040.55769043 -246.05155273 1040.11538086 -246.59326172 1039.65966797 C-254.6795029 1032.84862679 -262.55064652 1025.83997447 -270.27001953 1018.61669922 C-272.14321749 1016.86616057 -274.02241502 1015.12221359 -275.90234375 1013.37890625 C-277.22670986 1012.14859611 -278.55093126 1010.91813017 -279.875 1009.6875 C-280.78463501 1008.84372803 -280.78463501 1008.84372803 -281.71264648 1007.98291016 C-287.70387967 1002.39854491 -293.45096271 996.698514 -298.79296875 990.48828125 C-301.15515968 987.82506776 -303.58458343 985.23582778 -306.02734375 982.64672852 C-312.31783492 975.97638078 -318.28181114 969.17180252 -324 962 C-324.97979687 960.80957047 -325.96171168 959.62088217 -326.9453125 958.43359375 C-351.17069721 929.11613108 -371.42871576 897.12381938 -390 864 C-390.36158203 863.36094727 -390.72316406 862.72189453 -391.09570312 862.06347656 C-427.0394351 798.28657639 -448.00730978 724.54062707 -456.74285889 652.12298584 C-456.98928042 650.08850204 -457.24456398 648.05527892 -457.50048828 646.02197266 C-462.76505787 602.44091826 -462.64891637 555.52944824 -457 512 C-456.90289734 511.23347107 -456.80579468 510.46694214 -456.70574951 509.67718506 C-446.87761701 432.34812108 -423.62362846 356.93478836 -385 289 C-384.54947266 288.19836426 -384.09894531 287.39672852 -383.63476562 286.57080078 C-366.211441 255.58399023 -345.97204545 226.14878099 -323 199 C-322.55769043 198.47422363 -322.11538086 197.94844727 -321.65966797 197.40673828 C-314.8516022 189.32402958 -307.84950295 181.45367203 -300.62451172 173.7421875 C-298.89694357 171.88947841 -297.18430412 170.02367131 -295.47265625 168.15625 C-287.2988545 159.27973301 -278.79057211 150.89523249 -269.89599609 142.74316406 C-268.08311708 141.0764172 -266.28350437 139.39666474 -264.48828125 137.7109375 C-257.87470747 131.51488 -251.07228516 125.67265861 -244 120 C-242.80726658 119.0172335 -241.61594599 118.03275069 -240.42578125 117.046875 C-217.39194262 98.02082504 -192.70969294 81.19901531 -167 66 C-166.25411621 65.55301758 -165.50823242 65.10603516 -164.73974609 64.64550781 C-117.54013111 36.43492826 -66.02924028 16.17329151 -13 1.9375 C-12.24710693 1.73342529 -11.49421387 1.52935059 -10.71850586 1.3190918 C-7.04189488 0.36767491 -3.78408786 -0.080867 0 0 Z " fill="#5FD277" transform="translate(463,19)"/>
<path d="M0 0 C1.36305268 -0.00702428 2.72610505 -0.01411108 4.0891571 -0.02125549 C8.41881795 -0.04064183 12.74842513 -0.0456896 17.078125 -0.046875 C18.18549452 -0.04753778 18.18549452 -0.04753778 19.31523514 -0.04821396 C41.7923299 -0.05526709 64.00559013 0.31143106 86.328125 3.203125 C87.76783918 3.38235456 89.20762015 3.56104821 90.64746094 3.73925781 C159.34777185 12.33689939 225.36612534 32.30484497 287.328125 63.203125 C288.3579248 63.71601074 289.38772461 64.22889648 290.44873047 64.75732422 C329.71090783 84.44054983 366.70908264 108.92272885 400.328125 137.203125 C400.85970215 137.64978516 401.3912793 138.09644531 401.93896484 138.55664062 C410.01909447 145.36338419 417.88421629 152.36824539 425.59814453 159.58642578 C427.47134249 161.33696443 429.35054002 163.08091141 431.23046875 164.82421875 C432.55483486 166.05452889 433.87905626 167.28499483 435.203125 168.515625 C435.80954834 169.07813965 436.41597168 169.6406543 437.04077148 170.22021484 C443.03200467 175.80458009 448.77908771 181.504611 454.12109375 187.71484375 C456.48328468 190.37805724 458.91270843 192.96729722 461.35546875 195.55639648 C467.64595992 202.22674422 473.60993614 209.03132248 479.328125 216.203125 C480.30792187 217.39355453 481.28983668 218.58224283 482.2734375 219.76953125 C506.49882221 249.08699392 526.75684076 281.07930562 545.328125 314.203125 C545.68970703 314.84217773 546.05128906 315.48123047 546.42382812 316.13964844 C582.3675601 379.91654861 603.33543478 453.66249793 612.07098389 526.08013916 C612.31740542 528.11462296 612.57268898 530.14784608 612.82861328 532.18115234 C618.09318287 575.76220674 617.97704137 622.67367676 612.328125 666.203125 C612.23102234 666.96965393 612.13391968 667.73618286 612.03387451 668.52593994 C602.20574201 745.85500392 578.95175346 821.26833664 540.328125 889.203125 C539.87759766 890.00476074 539.42707031 890.80639648 538.96289062 891.63232422 C521.539566 922.61913477 501.30017045 952.05434401 478.328125 979.203125 C477.88581543 979.72890137 477.44350586 980.25467773 476.98779297 980.79638672 C470.17675179 988.8826279 463.16809947 996.75377152 455.94482422 1004.47314453 C454.19428557 1006.34634249 452.45033859 1008.22554002 450.70703125 1010.10546875 C449.47672111 1011.42983486 448.24625517 1012.75405626 447.015625 1014.078125 C446.45311035 1014.68454834 445.8905957 1015.29097168 445.31103516 1015.91577148 C439.72666991 1021.90700467 434.026639 1027.65408771 427.81640625 1032.99609375 C425.15319276 1035.35828468 422.56395278 1037.78770843 419.97485352 1040.23046875 C413.30442282 1046.52103816 406.49900755 1052.48372135 399.328125 1058.203125 C398.12592638 1059.19458368 396.92552433 1060.18822329 395.7265625 1061.18359375 C386.60520091 1068.73136036 377.21443218 1075.78958295 367.54980469 1082.62548828 C365.40636148 1084.1475685 363.27600325 1085.68630022 361.1484375 1087.23046875 C336.69659282 1104.88450969 310.21891154 1119.62736555 283.328125 1133.203125 C282.3489209 1133.698125 281.3697168 1134.193125 280.36083984 1134.703125 C225.78922798 1162.08251282 149.61533057 1192.88329736 87.328125 1190.203125 C84.41828401 1183.22519659 81.94819555 1176.18957013 79.703125 1168.97265625 C79.1944841 1167.35491051 79.1944841 1167.35491051 78.67556763 1165.70448303 C77.94171214 1163.36900912 77.20960284 1161.03298595 76.47906494 1158.69647217 C75.30058943 1154.92756288 74.11767945 1151.16006193 72.93310547 1147.39306641 C72.52181738 1146.08502282 72.110532 1144.77697838 71.69924927 1143.46893311 C71.49316166 1142.81352287 71.28707405 1142.15811264 71.07474136 1141.48284149 C70.44014852 1139.46404082 69.80605715 1137.44508323 69.17208862 1135.42608643 C64.83641415 1121.62090161 60.45885875 1107.82910246 56.07617188 1094.03878403 C55.02829088 1090.74121941 53.98095856 1087.44348055 52.93359375 1084.14575195 C51.45412523 1079.48763682 49.97451425 1074.82956699 48.49470139 1070.17156124 C45.76883015 1061.59127783 43.0442536 1053.01058384 40.3203125 1044.4296875 C40.11429539 1043.78069866 39.90827827 1043.13170982 39.69601822 1042.46305466 C38.65603257 1039.18690252 37.61606715 1035.91074397 36.57611084 1032.63458252 C34.70193908 1026.73043609 32.82758769 1020.82634669 30.95325089 1014.92225266 C29.911535 1011.64087907 28.86983058 1008.35950185 27.828125 1005.078125 C27.41145839 1003.76562498 26.99479172 1002.45312498 26.578125 1001.140625 C4.07812642 930.26562948 4.07812642 930.26562948 3.4531126 928.2968359 C3.0364873 926.98446622 2.61986196 925.67209656 2.20323658 924.35972691 C1.16093677 921.07648305 0.11863759 917.79323898 -0.92366028 914.50999451 C-2.79109908 908.62755332 -4.65854209 902.74511347 -6.52600956 896.86268139 C-7.5577075 893.61288236 -8.58940162 890.36308212 -9.62109375 887.11328125 C-9.82576452 886.46857439 -10.0304353 885.82386753 -10.24130821 885.1596241 C-13.07925665 876.22014529 -15.91702722 867.28061003 -18.75466919 858.34103394 C-20.34166486 853.34143894 -21.92870941 848.34185946 -23.51576424 843.34228325 C-24.79597339 839.30932387 -26.07613204 835.27634847 -27.35620308 831.24334526 C-27.95588274 829.35410895 -28.55568418 827.4649113 -29.15548706 825.57571411 C-29.91850424 823.17165139 -30.68099166 820.76742045 -31.44290161 818.36300659 C-33.21370104 812.77779924 -34.99412281 807.19609233 -36.79833984 801.62158203 C-37.12815353 800.59843399 -37.45796722 799.57528595 -37.79777527 798.52113342 C-38.4118961 796.61780253 -39.02944456 794.71557276 -39.65107727 792.81468201 C-39.91921738 791.98195267 -40.18735748 791.14922333 -40.46362305 790.29125977 C-40.69840866 789.56947037 -40.93319427 788.84768097 -41.1750946 788.10401917 C-41.671875 786.203125 -41.671875 786.203125 -41.671875 783.203125 C-139.021875 783.203125 -236.371875 783.203125 -336.671875 783.203125 C-336.671875 669.683125 -336.671875 556.163125 -336.671875 439.203125 C-253.511875 439.203125 -170.351875 439.203125 -84.671875 439.203125 C-72.6759971 472.79158311 -72.6759971 472.79158311 -68.79052734 484.10424805 C-68.01458122 486.35948476 -67.23179282 488.61229005 -66.44921875 490.86523438 C-65.94750587 492.32277533 -65.44618581 493.78045157 -64.9453125 495.23828125 C-64.59864029 496.23167259 -64.59864029 496.23167259 -64.2449646 497.24513245 C-63.29127732 500.04294919 -62.671875 502.22183593 -62.671875 505.203125 C-129.331875 505.203125 -195.991875 505.203125 -264.671875 505.203125 C-264.671875 528.633125 -264.671875 552.063125 -264.671875 576.203125 C-210.221875 576.203125 -155.771875 576.203125 -99.671875 576.203125 C-99.671875 597.983125 -99.671875 619.763125 -99.671875 642.203125 C-154.121875 642.203125 -208.571875 642.203125 -264.671875 642.203125 C-264.671875 666.953125 -264.671875 691.703125 -264.671875 717.203125 C-175.571875 717.203125 -86.471875 717.203125 5.328125 717.203125 C12.62982846 739.10823537 19.88212507 761.00004782 26.828125 783.015625 C27.68427312 785.72285346 28.54132805 788.42979452 29.3984375 791.13671875 C30.9455991 796.02375208 32.49193072 800.91104629 34.03709412 805.79871178 C36.80504243 814.55395975 39.58012805 823.30692631 42.359375 832.05859375 C42.56469345 832.70513727 42.7700119 833.35168079 42.98155212 834.01781654 C44.01632909 837.27618137 45.05122777 840.53450752 46.08618164 843.79281616 C47.95902168 849.6892158 49.83077554 855.58596027 51.70262146 861.48267555 C52.74441245 864.76450585 53.78627217 868.04631433 54.828125 871.328125 C55.244792 872.6406249 55.66145866 873.9531249 56.078125 875.265625 C56.284375 875.9153125 56.490625 876.565 56.703125 877.234375 C63.99479167 900.203125 71.28645833 923.171875 78.578125 946.140625 C78.88750378 947.11516805 78.88750378 947.11516805 79.20313263 948.10939884 C79.61977401 949.42181932 80.03641525 950.73423985 80.45305634 952.04666042 C81.49510865 955.32912745 82.53716353 958.61159367 83.57922363 961.89405823 C85.44962119 967.78577461 87.32000153 973.67749646 89.19028473 979.56924915 C90.22580203 982.83132641 91.26133454 986.09339884 92.296875 989.35546875 C92.60479225 990.32544454 92.60479225 990.32544454 92.91893005 991.31501579 C95.26451591 998.70380514 97.61044452 1006.09248549 99.95703125 1013.48095703 C100.28510584 1014.51393512 100.28510584 1014.51393512 100.6198082 1015.56778145 C101.50311714 1018.3489507 102.38643353 1021.13011758 103.26978302 1023.91127396 C105.62986457 1031.34186266 107.98934741 1038.77264014 110.34667969 1046.20410156 C110.55029491 1046.84597475 110.75391014 1047.48784794 110.96369553 1048.14917183 C111.96394039 1051.30234492 112.96414635 1054.45553034 113.96429443 1057.60873413 C116.07945468 1064.27521709 118.19956019 1070.94008508 120.32666016 1077.60276794 C121.4849521 1081.23232643 122.64016299 1084.86286034 123.79467773 1088.49362183 C124.31021258 1090.11205824 124.82726158 1091.73001326 125.34594727 1093.34744263 C126.03656463 1095.50125818 126.72205798 1097.65663646 127.40625 1099.8125 C127.78168945 1100.98780273 128.15712891 1102.16310547 128.54394531 1103.37402344 C129.328125 1106.203125 129.328125 1106.203125 129.328125 1109.203125 C215.36791918 1084.94253548 298.65679255 1047.17380975 365.19921875 986.1484375 C367.25221492 984.2724887 369.34405231 982.45304585 371.453125 980.640625 C374.93246306 977.61633115 378.16061242 974.39225889 381.390625 971.10546875 C383.16058978 969.36762027 384.97719499 967.77914213 386.890625 966.203125 C390.12268019 963.49755843 392.78648499 960.48031213 395.51171875 957.2734375 C397.37087152 955.15440317 399.31773899 953.17864883 401.328125 951.203125 C405.20809555 947.36766654 408.79270321 943.35584266 412.328125 939.203125 C413.1634375 938.23375 413.99875 937.264375 414.859375 936.265625 C470.68720064 871.21112895 510.76306358 790.86121538 539.578125 598.515625 C539.57879974 597.46776825 539.57947449 596.4199115 539.58016968 595.34030151 C539.49101789 507.38914354 516.61033456 422.1983023 420.328125 265.203125 C419.85133301 264.62723633 419.37454102 264.05134766 418.88330078 263.45800781 C410.31123422 253.10671987 401.37645702 243.07868662 391.765625 233.67578125 C390.38773864 232.26419658 389.13453063 230.73408577 387.890625 229.203125 C385.27241426 226.13790267 382.4930546 223.66068229 379.43359375 221.0546875 C377.30431702 219.18218811 375.31515496 217.22528908 373.328125 215.203125 C369.49291108 211.32340183 365.48312261 207.73557246 361.328125 204.203125 C360.33554687 203.35621094 359.34296875 202.50929687 358.3203125 201.63671875 C352.30771642 196.52028709 346.24379852 191.47498092 340.11328125 186.5 C337.65867616 184.47572539 335.25052064 182.40652365 332.84863281 180.3203125 C299.59261322 151.59827213 259.6902288 130.87762718 219.328125 114.203125 C217.54668693 113.45357182 215.7654202 112.70361122 213.984375 111.953125 C170.24425396 93.73858519 122.26135597 84.49551753 75.328125 79.203125 C74.67509399 79.12900391 74.02206299 79.05488281 73.34924316 78.97851562 C31.62153938 74.29456399 -10.01136922 75.3925509 -51.671875 80.203125 C-54.41402328 73.12954185 -56.75692139 65.94533669 -59.0859375 58.7265625 C-59.50519583 57.42956169 -59.92449797 56.13257505 -60.34384155 54.83560181 C-61.21758786 52.13140457 -62.08973488 49.42669741 -62.9609375 46.72167969 C-64.07415472 43.26618898 -65.19302924 39.81255855 -66.31330299 36.3593502 C-67.17923492 33.68704332 -68.04132177 31.01350746 -68.90235519 28.33961868 C-69.51185702 26.44996574 -70.12523047 24.56156298 -70.73867798 22.67318726 C-71.10931366 21.51823761 -71.47994934 20.36328796 -71.86181641 19.17333984 C-72.18808014 18.16266449 -72.51434387 17.15198914 -72.85049438 16.11068726 C-73.68588047 13.15354776 -74.22445299 10.24112642 -74.671875 7.203125 C-66.68662301 5.15633052 -58.61289819 4.27793996 -50.43603516 3.39819336 C-48.07251643 3.14338933 -45.71008393 2.8799425 -43.34765625 2.61523438 C-41.79693198 2.44479327 -40.24615223 2.27485603 -38.6953125 2.10546875 C-37.67260757 1.99137917 -37.67260757 1.99137917 -36.62924194 1.87498474 C-24.43879458 0.5765797 -12.25496839 0.04291881 0 0 Z " fill="#6C6C70" transform="translate(581.671875,2.796875)"/>
</svg>
